<?xml version="1.0" encoding="UTF-8"?>
<svg version="1.1" xmlns="http://www.w3.org/2000/svg" width="512" height="512">
<path d="M0 0 C79.2 0 158.4 0 240 0 C240 21.12 240 42.24 240 64 C176.64 64 113.28 64 48 64 C48 196 48 328 48 464 C69.12 464 90.24 464 112 464 C112 450.8 112 437.6 112 424 C101.44 424 90.88 424 80 424 C80 413.44 80 402.88 80 392 C132.8 392 185.6 392 240 392 C240 402.56 240 413.12 240 424 C208.32 424 176.64 424 144 424 C144 437.2 144 450.4 144 464 C175.68 464 207.36 464 240 464 C240 469.28 240 474.56 240 480 C81.6 480 -76.8 480 -240 480 C-240 474.72 -240 469.44 -240 464 C-155.52 464 -71.04 464 16 464 C16 332 16 200 16 64 C10.72 64 5.44 64 0 64 C0 42.88 0 21.76 0 0 Z " fill="#8892A0" transform="translate(256,16)"/>
<path d="M0 0 C0.66 0 1.32 0 2 0 C15.57651293 26.84658457 23.08528616 56.08397173 13.72412109 85.92675781 C11.55734267 92.13049428 8.86529544 98.0923403 6 104 C7.485 104.99 7.485 104.99 9 106 C9.15033691 105.41621582 9.30067383 104.83243164 9.45556641 104.23095703 C15.21744958 82.17204675 15.21744958 82.17204675 21 75 C21.57234375 74.28972656 22.1446875 73.57945312 22.734375 72.84765625 C32.46358035 62.05306271 47.12596874 58.40375658 61 56 C62.32 56 63.64 56 65 56 C63.28900656 72.07965881 59.45371804 87.78211336 47.3125 99.1875 C38.95427984 105.73853742 29.08487422 108.3779327 19 111 C24.94 113.97 30.88 116.94 37 120 C35.61777376 124.14667871 34.33435798 127.55940815 32.375 131.375 C31.92898437 132.24898437 31.48296875 133.12296875 31.0234375 134.0234375 C30.68570313 134.67570313 30.34796875 135.32796875 30 136 C26.87483453 134.52118275 23.7498959 133.04188678 20.625 131.5625 C19.73554688 131.14162109 18.84609375 130.72074219 17.9296875 130.28710938 C16.65351563 129.68286133 16.65351563 129.68286133 15.3515625 129.06640625 C14.56604004 128.69459229 13.78051758 128.32277832 12.97119141 127.93969727 C11.641371 127.30575142 10.31766752 126.65883376 9 126 C9 134.58 9 143.16 9 152 C27.48 152 45.96 152 65 152 C65 162.56 65 173.12 65 184 C59.72 184 54.44 184 49 184 C49.04737305 185.97105713 49.04737305 185.97105713 49.09570312 187.98193359 C49.09111556 195.45884084 48.2382333 202.8613254 47.46875 210.2890625 C47.32930064 211.66881833 47.19030247 213.04861983 47.05175781 214.4284668 C46.53994896 219.49453079 46.01946935 224.55971578 45.5 229.625 C44.345 240.96875 43.19 252.3125 42 264 C14.94 264 -12.12 264 -40 264 C-41.155 252.65625 -42.31 241.3125 -43.5 229.625 C-43.86544922 226.06154785 -44.23089844 222.4980957 -44.60742188 218.82666016 C-45.05175781 214.4284668 -45.05175781 214.4284668 -45.25939941 212.36044312 C-45.40339598 210.93569573 -45.54933917 209.51114418 -45.69689941 208.08676147 C-46.52950862 200.03536851 -47.19474607 192.10282769 -47 184 C-52.28 184 -57.56 184 -63 184 C-63 173.44 -63 162.88 -63 152 C-44.52 152 -26.04 152 -7 152 C-7 143.42 -7 134.84 -7 126 C-13.6 129.3 -20.2 132.6 -27 136 C-29.31739296 132.91014273 -30.99373333 130.28287889 -32.6875 126.875 C-33.12449219 126.00617188 -33.56148437 125.13734375 -34.01171875 124.2421875 C-35 122 -35 122 -35 120 C-29.06 117.03 -23.12 114.06 -17 111 C-19.949375 110.13375 -22.89875 109.2675 -25.9375 108.375 C-33.05910864 106.1780424 -39.29342832 103.95405673 -45 99 C-45.92619141 98.25169922 -45.92619141 98.25169922 -46.87109375 97.48828125 C-57.30115506 88.22459239 -60.70201106 73.2635603 -63 60 C-63 58.68 -63 57.36 -63 56 C-46.93482241 57.70945254 -31.17735138 61.53375064 -19.80859375 73.703125 C-12.42312619 83.08250928 -9.849446 94.65264868 -7 106 C-6.01 105.34 -5.02 104.68 -4 104 C-4.45890625 103.05382812 -4.9178125 102.10765625 -5.390625 101.1328125 C-16.54951632 77.43498718 -19.71202374 49.13060615 -11 24 C-8.95248155 18.52599696 -6.55543939 13.25317702 -4 8 C-3.55785156 7.08476562 -3.11570313 6.16953125 -2.66015625 5.2265625 C-1.79577253 3.47318627 -0.90301828 1.73379509 0 0 Z " fill="#C18E59" transform="translate(143,200)"/>
<path d="M0 0 C52.8 0 105.6 0 160 0 C160 10.56 160 21.12 160 32 C128.32 32 96.64 32 64 32 C64 45.2 64 58.4 64 72 C95.68 72 127.36 72 160 72 C160 77.28 160 82.56 160 88 C1.6 88 -156.8 88 -320 88 C-320 82.72 -320 77.44 -320 72 C-203.84 72 -87.68 72 32 72 C32 58.8 32 45.6 32 32 C21.44 32 10.88 32 0 32 C0 21.44 0 10.88 0 0 Z " fill="#C18E59" transform="translate(336,408)"/>
<path d="M0 0 C10.56 0 21.12 0 32 0 C32 132 32 264 32 400 C21.44 400 10.88 400 0 400 C0 268 0 136 0 0 Z " fill="#4D5D7A" transform="translate(272,80)"/>
<path d="M0 0 C8.3112022 6.01323735 14.78622451 14.40834331 17.01171875 24.58203125 C17.24975453 26.19937021 17.40824747 27.82815778 17.546875 29.45703125 C18.536875 28.96203125 19.526875 28.46703125 20.546875 27.95703125 C28.57315758 24.97216816 39.10663249 25.15300298 47.109375 28.08203125 C55.67692899 32.19330716 61.12897483 38.4504582 64.66015625 47.22265625 C67.02767228 55.85835348 66.6982975 66.23369974 62.8046875 74.34765625 C57.85328823 82.65124508 50.92590676 87.96357375 41.546875 90.45703125 C37.72134677 90.75984419 33.90485198 90.75078208 30.06884766 90.74755859 C28.92014694 90.75427582 27.77144623 90.76099304 26.5879364 90.76791382 C22.79555928 90.78689144 19.00335913 90.79081783 15.2109375 90.79296875 C12.5706678 90.79939642 9.93039882 90.80612475 7.29013062 90.81314087 C1.7572108 90.82591442 -3.77566118 90.82890749 -9.30859375 90.82763672 C-15.69003134 90.82643557 -22.07113058 90.84753745 -28.45248258 90.87912405 C-34.60771323 90.90849788 -40.76278232 90.91561096 -46.91807938 90.91441727 C-49.52952074 90.9167751 -52.14096471 90.92560879 -54.7523613 90.941082 C-58.40729487 90.96071211 -62.06136057 90.9549147 -65.71630859 90.94287109 C-67.32813271 90.95972961 -67.32813271 90.95972961 -68.97251892 90.97692871 C-76.54635663 90.91362055 -81.84534812 89.61855002 -87.6953125 84.4921875 C-88.23414063 83.84121094 -88.77296875 83.19023438 -89.328125 82.51953125 C-89.88242188 81.87113281 -90.43671875 81.22273438 -91.0078125 80.5546875 C-95.48724597 74.05345568 -95.12776228 67.08562208 -94.453125 59.45703125 C-92.77226917 52.79743792 -87.98934178 48.27155678 -82.453125 44.45703125 C-78.23453924 42.24591044 -74.30116641 42.2160752 -69.640625 42.33203125 C-68.60131836 42.34556641 -68.60131836 42.34556641 -67.54101562 42.359375 C-65.84490105 42.38276968 -64.14896629 42.41863484 -62.453125 42.45703125 C-62.49953125 41.35746094 -62.5459375 40.25789063 -62.59375 39.125 C-62.96125444 26.79473697 -61.65224784 17.28690847 -53.42578125 7.5234375 C-39.49513778 -7.06925635 -17.48210378 -10.99590922 0 0 Z " fill="#A1CDFB" transform="translate(110.453125,21.54296875)"/>
<path d="M0 0 C31.68 0 63.36 0 96 0 C96 6.08231435 95.96458085 11.59786669 95.35742188 17.56103516 C95.28803658 18.2560935 95.21865128 18.95115185 95.14716339 19.66727257 C94.92565221 21.87503297 94.69738955 24.08203027 94.46875 26.2890625 C94.32930064 27.66881833 94.19030247 29.04861983 94.05175781 30.4284668 C93.53994896 35.49453079 93.01946935 40.55971578 92.5 45.625 C91.345 56.96875 90.19 68.3125 89 80 C61.94 80 34.88 80 7 80 C5.845 68.65625 4.69 57.3125 3.5 45.625 C3.13455078 42.06154785 2.76910156 38.4980957 2.39257812 34.82666016 C1.94824219 30.4284668 1.94824219 30.4284668 1.74060059 28.36044312 C1.59660402 26.93569573 1.45066083 25.51114418 1.30310059 24.08676147 C1.07820142 21.91196981 0.85975828 19.73660954 0.64257812 17.56103516 C0.51822388 16.33969879 0.39386963 15.11836243 0.26574707 13.86001587 C-0.05162951 9.25007359 0 4.62085444 0 0 Z " fill="#966946" transform="translate(96,384)"/>
<path d="M0 0 C52.8 0 105.6 0 160 0 C160 10.56 160 21.12 160 32 C128.32 32 96.64 32 64 32 C64 45.2 64 58.4 64 72 C53.44 72 42.88 72 32 72 C32 58.8 32 45.6 32 32 C21.44 32 10.88 32 0 32 C0 21.44 0 10.88 0 0 Z " fill="#C18E59" transform="translate(336,408)"/>
<path d="M0 0 C0.66 0 1.32 0 2 0 C15.58469145 26.86275701 23.08458243 56.1025273 13.70654297 85.95751953 C10.66541858 94.74882799 6.69556094 102.97841672 2 111 C1.34 111 0.68 111 0 111 C-14.144038 86.25670772 -19.85173226 58.35994544 -12.91552734 30.12524414 C-10.77160742 22.41422425 -7.49259567 15.17967462 -4 8 C-3.33677734 6.62714844 -3.33677734 6.62714844 -2.66015625 5.2265625 C-1.79577253 3.47318627 -0.90301828 1.73379509 0 0 Z " fill="#77B75A" transform="translate(143,200)"/>
<path d="M0 0 C-1.70689052 16.04110012 -5.51446906 31.87512336 -17.71875 43.19140625 C-27.60817489 51.03182358 -43.3511061 56 -56 56 C-53.56958657 38.82721034 -50.24997102 22.25893615 -36 11 C-26.14914965 4.42758723 -11.91450179 0 0 0 Z " fill="#78B65A" transform="translate(208,256)"/>
<path d="M0 0 C16.04709596 1.70752852 31.86203697 5.51924503 43.19140625 17.71484375 C51.08091666 27.68323163 56 43.27685428 56 56 C38.82721034 53.56958657 22.25893615 50.24997102 11 36 C4.42758723 26.14914965 0 11.91450179 0 0 Z " fill="#78B65A" transform="translate(80,256)"/>
<path d="M0 0 C0.66 1.98 1.32 3.96 2 6 C2.66 6 3.32 6 4 6 C4.66 4.02 5.32 2.04 6 0 C8.475 0.495 8.475 0.495 11 1 C12 4 12 4 11 7 C11.66 6.67 12.32 6.34 13 6 C20.02626775 5.31602703 24.38239045 7.18214336 30.5 10.5 C31.32242188 10.92925781 32.14484375 11.35851562 32.9921875 11.80078125 C35.00291734 12.85290733 37.00455818 13.91924214 39 15 C37.74836205 18.98886486 36.2841479 22.65718567 34.375 26.375 C33.70597656 27.68597656 33.70597656 27.68597656 33.0234375 29.0234375 C32.51683594 30.00183594 32.51683594 30.00183594 32 31 C28.87483453 29.52118275 25.7498959 28.04188678 22.625 26.5625 C21.73554688 26.14162109 20.84609375 25.72074219 19.9296875 25.28710938 C19.07890625 24.88427734 18.228125 24.48144531 17.3515625 24.06640625 C16.56604004 23.69459229 15.78051758 23.32277832 14.97119141 22.93969727 C13.641371 22.30575142 12.31766752 21.65883376 11 21 C11 29.58 11 38.16 11 47 C5.72 47 0.44 47 -5 47 C-5 38.42 -5 29.84 -5 21 C-14.9 25.95 -14.9 25.95 -25 31 C-27.31739296 27.91014273 -28.99373333 25.28287889 -30.6875 21.875 C-31.34298828 20.57175781 -31.34298828 20.57175781 -32.01171875 19.2421875 C-33 17 -33 17 -33 15 C-29.78250772 13.28951939 -26.54943681 11.61085072 -23.3125 9.9375 C-21.94448242 9.20950195 -21.94448242 9.20950195 -20.54882812 8.46679688 C-19.66259766 8.01240234 -18.77636719 7.55800781 -17.86328125 7.08984375 C-17.05157471 6.66566162 -16.23986816 6.24147949 -15.40356445 5.80444336 C-11.54616009 4.51341772 -8.74871612 5.75042796 -5 7 C-5.33 5.35 -5.66 3.7 -6 2 C-3 0 -3 0 0 0 Z " fill="#966947" transform="translate(141,305)"/>
<path d="M0 0 C10.56 0 21.12 0 32 0 C32 13.2 32 26.4 32 40 C21.44 40 10.88 40 0 40 C0 26.8 0 13.6 0 0 Z " fill="#8892A0" transform="translate(368,440)"/>
</svg>
